# xmcd CD database file
#
# Track frame offsets:
#	150
#	20945
#	43347
#
# Disc length: 862 seconds
#
# Revision: 0
# Processed by: cddbd v1.5.1PL0 Copyright (c) Steve Scherf et al.
# Submitted via: CDex 1.51
#
DISCID=27035c03
DTITLE=LUCA - BREEZE
DYEAR=1999
DGENRE=JPop
TTITLE0=BREEZE
TTITLE1=REGRET LOVE
TTITLE2=REAL FREE
EXTD=YEAR: 1999
EXTT0=
EXTT1=
EXTT2=
PLAYORDER=
